<svg width="24" height="24" viewBox="0 0 24 24" fill="none" xmlns="http://www.w3.org/2000/svg">
<mask id="mask0_3022_49856" style="mask-type:luminance" maskUnits="userSpaceOnUse" x="3" y="3" width="20" height="18">
<path fill-rule="evenodd" clip-rule="evenodd" d="M16.1564 3.5497C16.4052 3.05664 17.0066 2.85863 17.4997 3.10745C20.8445 4.79533 23 8.2255 23 12.0401C23 12.5924 22.5523 13.0401 22 13.0401C21.4477 13.0401 21 12.5924 21 12.0401C21 8.9877 19.2759 6.24398 16.5986 4.89298C16.1056 4.64417 15.9076 4.04276 16.1564 3.5497ZM9.83745 3.55199C9.58828 3.05911 8.98673 2.86155 8.49384 3.11072C5.15257 4.79987 3 8.2281 3 12.0401C3 12.5924 3.44772 13.0401 4 13.0401C4.55228 13.0401 5 12.5924 5 12.0401C5 8.98978 6.72179 6.24761 9.39618 4.8956C9.88906 4.64643 10.0866 4.04488 9.83745 3.55199ZM4 17C3.44772 17 3 17.4477 3 18C3 18.5523 3.44772 19 4 19H6H10C10 20.1046 10.8954 21 12 21C13.1046 21 14 20.1046 14 19H18H20C20.5523 19 21 18.5523 21 18C21 17.4477 20.5523 17 20 17H18V11L17.9959 10.7751C17.9028 8.25045 16.25 6.12426 13.9726 5.3318C13.9906 5.22388 14 5.11304 14 5C14 3.89543 13.1046 3 12 3C10.8954 3 10 3.89543 10 5C10 5.11304 10.0094 5.22388 10.0274 5.3318C7.75004 6.12426 6.09719 8.25045 6.00414 10.7751L6 11V17H4ZM12 17H16L16.0003 11.0368L15.9972 10.8487C15.9182 8.70497 14.1531 7 12 7C9.91422 7 8.19249 8.60007 8.01602 10.6155L8.0038 10.8119L8 11V17H12Z" fill="white"/>
</mask>
<g mask="url(#mask0_3022_49856)">
<rect width="24" height="24" fill="#E66419"/>
</g>
</svg>
