<svg width="24" height="24" viewBox="0 0 24 24" fill="none" xmlns="http://www.w3.org/2000/svg">
<g clip-path="url(#clip0_10070_149098)">
<path d="M20.107 7.91894C20.219 7.03606 20.0423 6.14288 19.6043 5.37699C19.1662 4.6111 18.4911 4.01498 17.6829 3.68047C16.8746 3.34596 15.9781 3.29161 15.1315 3.52579C14.2848 3.75997 13.535 4.26969 12.9975 4.97644M13.2785 2.97676L12.7598 4.91275L14.6614 5.4223" stroke="#5F6076" stroke-linecap="round" stroke-linejoin="round"/>
<path d="M3.40625 16.5C3.2964 17.3834 3.48006 18.2785 3.92894 19.0473C4.37782 19.8161 5.06702 20.416 5.89038 20.7545C6.71373 21.0931 7.62557 21.1516 8.48542 20.9209C9.34527 20.6903 10.1054 20.1833 10.6488 19.4781M10.3721 21.479L10.8908 19.543L8.95483 19.0242" stroke="#5F6076" stroke-linecap="round" stroke-linejoin="round"/>
<path d="M9.025 4.5C8.87572 4.07643 8.60309 3.70722 8.2422 3.4399C7.88132 3.17258 7.44869 3.01937 7 3H4C3.40326 3 2.83097 3.23705 2.40901 3.65901C1.98705 4.08097 1.75 4.65326 1.75 5.25C1.75 5.84674 1.98705 6.41903 2.40901 6.84099C2.83097 7.26295 3.40326 7.5 4 7.5H7C7.59674 7.5 8.16903 7.73705 8.59099 8.15901C9.01295 8.58097 9.25 9.15326 9.25 9.75C9.25 10.3467 9.01295 10.919 8.59099 11.341C8.16903 11.7629 7.59674 12 7 12H4C3.55131 11.9806 3.11868 11.8274 2.7578 11.5601C2.39691 11.2928 2.12429 10.9236 1.975 10.5" stroke="#5F6076" stroke-width="1.5" stroke-linecap="round" stroke-linejoin="round"/>
<path d="M5.5 0.75V3V14.25" stroke="#5F6076" stroke-width="1.25" stroke-linecap="round" stroke-linejoin="round"/>
<path d="M17 11.25V22.5C18.3924 22.5 19.7277 21.9469 20.7123 20.9623C21.6969 19.9777 22.25 18.6424 22.25 17.25" stroke="#5F6076" stroke-width="1.5" stroke-linecap="round" stroke-linejoin="round"/>
<path d="M14 18.75L20 15.75" stroke="#5F6076" stroke-width="1.25" stroke-linecap="round" stroke-linejoin="round"/>
<path d="M20 12.75L14 15.75" stroke="#5F6076" stroke-width="1.25" stroke-linecap="round" stroke-linejoin="round"/>
</g>
<defs>
<clipPath id="clip0_10070_149098">
<rect width="24" height="24" fill="white"/>
</clipPath>
</defs>
</svg>
