<svg width="28" height="28" viewBox="0 0 28 28" fill="none" xmlns="http://www.w3.org/2000/svg">
<rect width="28" height="28" rx="14" fill="#143EB2"/>
<path d="M14.5006 15.3121C14.2343 16.4645 13.6463 17.5176 12.8051 18.3489H12.0619C11.4459 18.3489 10.8551 18.5937 10.4196 19.0292C9.98397 19.4648 9.73927 20.0556 9.73927 20.6716V20.7645C8.48696 20.3068 7.36645 19.5482 6.47647 18.5554C5.58649 17.5626 4.95437 16.3661 4.63582 15.0714C4.31726 13.7767 4.32205 12.4235 4.64976 11.1311C4.97748 9.83872 5.61805 8.64675 6.51503 7.66028C7.41202 6.6738 8.53787 5.9231 9.79339 5.47432C11.0489 5.02555 12.3955 4.89248 13.7146 5.08684C15.0337 5.2812 16.2847 5.79703 17.3574 6.58886C18.4301 7.3807 19.2916 8.42423 19.8659 9.6275C19.5001 9.78428 19.1691 10.034 18.9136 10.3765L16.8813 13.094C16.8115 13.0319 16.7399 12.9718 16.6665 12.914C16.2949 12.6063 16.1381 12.1185 15.9871 11.6656C15.842 11.2417 15.7142 10.8469 15.4239 10.6553C13.9548 12.4901 13.6587 11.9792 13.3103 11.3695C13.1245 11.0501 12.9271 10.7017 12.538 10.6553C11.3593 10.5101 10.8193 10.214 13.1129 9.14556C15.5516 8.64619 14.5761 7.64166 13.589 6.82294C12.1383 6.58041 10.6483 6.84275 9.36765 7.56618C9.97153 8.19328 10.6103 9.26169 9.56507 9.83654C9.12958 10.0746 8.76377 10.2024 8.46183 10.3011C7.72439 10.5566 7.33536 10.6901 7.13793 12.0488C6.98116 13.094 6.54566 12.9663 6.15082 12.6527C6.12799 12.9659 6.12799 13.2802 6.15082 13.5934C6.44115 13.576 6.96374 14.1624 7.81149 16.2296C7.88698 16.4154 7.95666 16.0902 8.04956 15.6489C8.23537 14.7895 8.51409 13.4714 9.12958 14.4702C9.97153 15.8347 12.8109 17.7915 12.538 16.2296C12.2709 14.6966 14.7445 14.0695 14.5123 15.3121H14.5006ZM20.1911 11.6192C20.2452 11.547 20.3153 11.4885 20.3959 11.4482C20.4765 11.4079 20.5655 11.3869 20.6556 11.3869C20.7457 11.3869 20.8346 11.4079 20.9153 11.4482C20.9959 11.4885 21.066 11.547 21.1201 11.6192L23.4427 14.5224C23.5074 14.6087 23.5468 14.7113 23.5565 14.8187C23.5662 14.9261 23.5458 15.034 23.4976 15.1305C23.4493 15.227 23.3752 15.3081 23.2835 15.3648C23.1918 15.4214 23.0861 15.4515 22.9782 15.4515H21.8053V22.4193C21.8053 22.7329 21.5556 23 21.2304 23H20.0691C19.7498 23 19.4827 22.7329 19.4827 22.4193V15.4457H18.3272C18.2193 15.4457 18.1136 15.4156 18.0219 15.359C17.9302 15.3023 17.856 15.2211 17.8078 15.1247C17.7596 15.0282 17.7392 14.9203 17.7489 14.8129C17.7585 14.7055 17.7979 14.6029 17.8626 14.5166L20.1911 11.6133V11.6192ZM16.0104 17.1934C15.691 17.1934 15.4181 17.4489 15.4181 17.7741V22.4193C15.4181 22.7329 15.691 23 16.0104 23H17.1717C17.491 23 17.7407 22.7329 17.7407 22.4193V17.7741C17.7407 17.4489 17.491 17.1934 17.1717 17.1934H16.0104ZM11.3535 20.6716C11.3535 20.5176 11.4147 20.3699 11.5236 20.261C11.6325 20.1521 11.7801 20.0909 11.9341 20.0909H13.0955C13.2495 20.0909 13.3972 20.1521 13.506 20.261C13.6149 20.3699 13.6761 20.5176 13.6761 20.6716V22.4135C13.6761 22.5675 13.6149 22.7152 13.506 22.8241C13.3972 22.933 13.2495 22.9942 13.0955 22.9942H11.9341C11.7801 22.9942 11.6325 22.933 11.5236 22.8241C11.4147 22.7152 11.3535 22.5675 11.3535 22.4135V20.6716Z" fill="white"/>
</svg>
