<svg width="24" height="24" viewBox="0 0 24 24" fill="none" xmlns="http://www.w3.org/2000/svg">
<path d="M20.6504 6.6574C20.0157 6.93878 19.3336 7.12828 18.6178 7.2137C19.3487 6.77656 19.9101 6.08388 20.1739 5.25841C19.4903 5.66325 18.7328 5.95755 17.9263 6.11618C17.2816 5.42925 16.3609 5 15.3431 5C13.0582 5 11.3792 7.129 11.8953 9.33911C8.95489 9.19196 6.34727 7.78507 4.60142 5.64674C3.67423 7.23523 4.12058 9.31327 5.69608 10.3656C5.11677 10.3469 4.57052 10.1883 4.09398 9.9234C4.05517 11.5607 5.23033 13.0925 6.93233 13.4334C6.43423 13.5684 5.8887 13.6 5.33383 13.4937C5.78377 14.8978 7.09045 15.9192 8.64008 15.9479C7.15227 17.1129 5.27777 17.6333 3.40039 17.4122C4.96655 18.415 6.82739 19 8.82552 19C15.3963 19 19.1087 13.4579 18.8844 8.48708C19.5759 7.98821 20.176 7.36587 20.6504 6.6574Z" fill="#828691"/>
</svg>
