<svg width="28" height="28" viewBox="0 0 28 28" fill="none" xmlns="http://www.w3.org/2000/svg">
<g clip-path="url(#clip0_1232_80040)">
<g clip-path="url(#clip1_1232_80040)">
<path d="M0 0H28V28H0V0Z" fill="#F8F9FD"/>
<path d="M17.1111 6.22222H28V0H17.1111V6.22222ZM0 28H28V21.7778H0V28ZM17.1111 17.1111H28V10.8889H17.1111V17.1111Z" fill="#EF5350"/>
<path d="M0 0H17.1111V17.1111H0V0Z" fill="#1E88E9"/>
<path d="M3.76508 1.89764C3.77686 1.87479 3.7947 1.85562 3.81665 1.84224C3.8386 1.82886 3.86381 1.82178 3.88952 1.82178C3.91523 1.82178 3.94044 1.82886 3.96239 1.84224C3.98435 1.85562 4.00219 1.87479 4.01397 1.89764L4.43397 3.00208C4.44952 3.06431 4.51174 3.09542 4.55841 3.09542L5.74063 3.15764C5.86508 3.15764 5.91174 3.3132 5.81841 3.40653L4.88508 4.13764C4.86477 4.15738 4.85092 4.18281 4.84536 4.21059C4.83981 4.23836 4.84281 4.26716 4.85397 4.2932L5.16508 5.4132C5.17455 5.4416 5.17467 5.47229 5.16541 5.50077C5.15615 5.52925 5.13801 5.554 5.11364 5.57141C5.08928 5.58881 5.05997 5.59794 5.03003 5.59747C5.00009 5.59699 4.9711 5.58692 4.9473 5.56875L3.9673 4.93097C3.94428 4.91559 3.91721 4.90738 3.88952 4.90738C3.86183 4.90738 3.83477 4.91559 3.81174 4.93097L2.83174 5.56875C2.80795 5.58692 2.77895 5.59699 2.74901 5.59747C2.71907 5.59794 2.68977 5.58881 2.6654 5.57141C2.64104 5.554 2.6229 5.52925 2.61364 5.50077C2.60438 5.47229 2.60449 5.4416 2.61397 5.4132L2.92508 4.27764C2.93444 4.25008 2.93497 4.22028 2.92661 4.1924C2.91824 4.16452 2.9014 4.13994 2.87841 4.12208L1.96063 3.40653C1.93866 3.38891 1.92251 3.36508 1.91429 3.33814C1.90608 3.31121 1.90618 3.28242 1.91458 3.25554C1.92298 3.22866 1.93929 3.20494 1.96138 3.18747C1.98347 3.17001 2.01032 3.15961 2.03841 3.15764L3.22063 3.09542C3.2673 3.09542 3.32952 3.06431 3.34508 3.00208L3.76508 1.9132V1.89764ZM3.76508 6.56431C3.77686 6.54145 3.7947 6.52229 3.81665 6.5089C3.8386 6.49552 3.86381 6.48844 3.88952 6.48844C3.91523 6.48844 3.94044 6.49552 3.96239 6.5089C3.98435 6.52229 4.00219 6.54145 4.01397 6.56431L4.43397 7.66875C4.44952 7.73097 4.51174 7.76208 4.55841 7.76208L5.74063 7.82431C5.86508 7.82431 5.91174 7.97986 5.81841 8.0732L4.88508 8.80431C4.86477 8.82404 4.85092 8.84948 4.84536 8.87725C4.83981 8.90503 4.84281 8.93383 4.85397 8.95986L5.16508 10.0799C5.17455 10.1083 5.17467 10.139 5.16541 10.1674C5.15615 10.1959 5.13801 10.2207 5.11364 10.2381C5.08928 10.2555 5.05997 10.2646 5.03003 10.2641C5.00009 10.2637 4.9711 10.2536 4.9473 10.2354L3.9673 9.59764C3.94428 9.58226 3.91721 9.57405 3.88952 9.57405C3.86183 9.57405 3.83477 9.58226 3.81174 9.59764L2.83174 10.2354C2.80795 10.2536 2.77895 10.2637 2.74901 10.2641C2.71907 10.2646 2.68977 10.2555 2.6654 10.2381C2.64104 10.2207 2.6229 10.1959 2.61364 10.1674C2.60438 10.139 2.60449 10.1083 2.61397 10.0799L2.92508 8.94431C2.93444 8.91674 2.93497 8.88695 2.92661 8.85907C2.91824 8.83119 2.9014 8.80661 2.87841 8.78875L1.96063 8.0732C1.93866 8.05558 1.92251 8.03175 1.91429 8.00481C1.90608 7.97787 1.90618 7.94909 1.91458 7.92221C1.92298 7.89533 1.93929 7.8716 1.96138 7.85414C1.98347 7.83667 2.01032 7.82628 2.03841 7.82431L3.22063 7.76208C3.2673 7.76208 3.32952 7.73097 3.34508 7.66875L3.76508 6.57986V6.56431ZM3.76508 11.231C3.77686 11.2081 3.7947 11.189 3.81665 11.1756C3.8386 11.1622 3.86381 11.1551 3.88952 11.1551C3.91523 11.1551 3.94044 11.1622 3.96239 11.1756C3.98435 11.189 4.00219 11.2081 4.01397 11.231L4.43397 12.3354C4.44952 12.3976 4.51174 12.4288 4.55841 12.4288L5.74063 12.491C5.86508 12.491 5.91174 12.6465 5.81841 12.7399L4.88508 13.471C4.86477 13.4907 4.85092 13.5161 4.84536 13.5439C4.83981 13.5717 4.84281 13.6005 4.85397 13.6265L5.16508 14.7465C5.17455 14.7749 5.17467 14.8056 5.16541 14.8341C5.15615 14.8626 5.13801 14.8873 5.11364 14.9047C5.08928 14.9221 5.05997 14.9313 5.03003 14.9308C5.00009 14.9303 4.9711 14.9203 4.9473 14.9021L3.9673 14.2643C3.94428 14.2489 3.91721 14.2407 3.88952 14.2407C3.86183 14.2407 3.83477 14.2489 3.81174 14.2643L2.83174 14.9021C2.80795 14.9203 2.77895 14.9303 2.74901 14.9308C2.71907 14.9313 2.68977 14.9221 2.6654 14.9047C2.64104 14.8873 2.6229 14.8626 2.61364 14.8341C2.60438 14.8056 2.60449 14.7749 2.61397 14.7465L2.92508 13.611C2.93444 13.5834 2.93497 13.5536 2.92661 13.5257C2.91824 13.4979 2.9014 13.4733 2.87841 13.4554L1.96063 12.7399C1.93866 12.7222 1.92251 12.6984 1.91429 12.6715C1.90608 12.6445 1.90618 12.6158 1.91458 12.5889C1.92298 12.562 1.93929 12.5383 1.96138 12.5208C1.98347 12.5033 2.01032 12.4929 2.03841 12.491L3.22063 12.4288C3.2673 12.4288 3.32952 12.3976 3.34508 12.3354L3.76508 11.2465V11.231ZM8.43175 1.89764C8.44352 1.87479 8.46137 1.85562 8.48332 1.84224C8.50527 1.82886 8.53048 1.82178 8.55619 1.82178C8.5819 1.82178 8.60711 1.82886 8.62906 1.84224C8.65101 1.85562 8.66886 1.87479 8.68063 1.89764L9.10063 3.00208C9.11619 3.06431 9.17841 3.09542 9.22508 3.09542L10.4073 3.15764C10.5317 3.15764 10.5784 3.3132 10.4851 3.40653L9.55174 4.13764C9.53143 4.15738 9.51759 4.18281 9.51203 4.21059C9.50648 4.23836 9.50948 4.26716 9.52063 4.2932L9.83175 5.4132C9.84122 5.4416 9.84133 5.47229 9.83207 5.50077C9.82282 5.52925 9.80467 5.554 9.78031 5.57141C9.75594 5.58881 9.72664 5.59794 9.6967 5.59747C9.66676 5.59699 9.63776 5.58692 9.61397 5.56875L8.63397 4.93097C8.61095 4.91559 8.58388 4.90738 8.55619 4.90738C8.5285 4.90738 8.50143 4.91559 8.47841 4.93097L7.49841 5.56875C7.47461 5.58692 7.44562 5.59699 7.41568 5.59747C7.38574 5.59794 7.35644 5.58881 7.33207 5.57141C7.30771 5.554 7.28956 5.52925 7.2803 5.50077C7.27105 5.47229 7.27116 5.4416 7.28063 5.4132L7.59174 4.27764C7.6011 4.25008 7.60164 4.22028 7.59327 4.1924C7.58491 4.16452 7.56806 4.13994 7.54508 4.12208L6.6273 3.40653C6.60533 3.38891 6.58918 3.36508 6.58096 3.33814C6.57274 3.31121 6.57284 3.28242 6.58124 3.25554C6.58964 3.22866 6.60595 3.20494 6.62805 3.18747C6.65014 3.17001 6.67698 3.15961 6.70508 3.15764L7.8873 3.09542C7.93397 3.09542 7.99619 3.06431 8.01174 3.00208L8.43175 1.9132V1.89764ZM8.43175 6.56431C8.44352 6.54145 8.46137 6.52229 8.48332 6.5089C8.50527 6.49552 8.53048 6.48844 8.55619 6.48844C8.5819 6.48844 8.60711 6.49552 8.62906 6.5089C8.65101 6.52229 8.66886 6.54145 8.68063 6.56431L9.10063 7.66875C9.11619 7.73097 9.17841 7.76208 9.22508 7.76208L10.4073 7.82431C10.5317 7.82431 10.5784 7.97986 10.4851 8.0732L9.55174 8.80431C9.53143 8.82404 9.51759 8.84948 9.51203 8.87725C9.50648 8.90503 9.50948 8.93383 9.52063 8.95986L9.83175 10.0799C9.84122 10.1083 9.84133 10.139 9.83207 10.1674C9.82282 10.1959 9.80467 10.2207 9.78031 10.2381C9.75594 10.2555 9.72664 10.2646 9.6967 10.2641C9.66676 10.2637 9.63776 10.2536 9.61397 10.2354L8.63397 9.59764C8.61095 9.58226 8.58388 9.57405 8.55619 9.57405C8.5285 9.57405 8.50143 9.58226 8.47841 9.59764L7.49841 10.2354C7.47461 10.2536 7.44562 10.2637 7.41568 10.2641C7.38574 10.2646 7.35644 10.2555 7.33207 10.2381C7.30771 10.2207 7.28956 10.1959 7.2803 10.1674C7.27105 10.139 7.27116 10.1083 7.28063 10.0799L7.59174 8.94431C7.6011 8.91674 7.60164 8.88695 7.59327 8.85907C7.58491 8.83119 7.56806 8.80661 7.54508 8.78875L6.6273 8.0732C6.60533 8.05558 6.58918 8.03175 6.58096 8.00481C6.57274 7.97787 6.57284 7.94909 6.58124 7.92221C6.58964 7.89533 6.60595 7.8716 6.62805 7.85414C6.65014 7.83667 6.67698 7.82628 6.70508 7.82431L7.8873 7.76208C7.93397 7.76208 7.99619 7.73097 8.01174 7.66875L8.43175 6.57986V6.56431ZM8.43175 11.231C8.44352 11.2081 8.46137 11.189 8.48332 11.1756C8.50527 11.1622 8.53048 11.1551 8.55619 11.1551C8.5819 11.1551 8.60711 11.1622 8.62906 11.1756C8.65101 11.189 8.66886 11.2081 8.68063 11.231L9.10063 12.3354C9.11619 12.3976 9.17841 12.4288 9.22508 12.4288L10.4073 12.491C10.5317 12.491 10.5784 12.6465 10.4851 12.7399L9.55174 13.471C9.53143 13.4907 9.51759 13.5161 9.51203 13.5439C9.50648 13.5717 9.50948 13.6005 9.52063 13.6265L9.83175 14.7465C9.84122 14.7749 9.84133 14.8056 9.83207 14.8341C9.82282 14.8626 9.80467 14.8873 9.78031 14.9047C9.75594 14.9221 9.72664 14.9313 9.6967 14.9308C9.66676 14.9303 9.63776 14.9203 9.61397 14.9021L8.63397 14.2643C8.61095 14.2489 8.58388 14.2407 8.55619 14.2407C8.5285 14.2407 8.50143 14.2489 8.47841 14.2643L7.49841 14.9021C7.47461 14.9203 7.44562 14.9303 7.41568 14.9308C7.38574 14.9313 7.35644 14.9221 7.33207 14.9047C7.30771 14.8873 7.28956 14.8626 7.2803 14.8341C7.27105 14.8056 7.27116 14.7749 7.28063 14.7465L7.59174 13.611C7.6011 13.5834 7.60164 13.5536 7.59327 13.5257C7.58491 13.4979 7.56806 13.4733 7.54508 13.4554L6.6273 12.7399C6.60533 12.7222 6.58918 12.6984 6.58096 12.6715C6.57274 12.6445 6.57284 12.6158 6.58124 12.5889C6.58964 12.562 6.60595 12.5383 6.62805 12.5208C6.65014 12.5033 6.67698 12.4929 6.70508 12.491L7.8873 12.4288C7.93397 12.4288 7.99619 12.3976 8.01174 12.3354L8.43175 11.2465V11.231ZM13.0984 1.89764C13.1102 1.87479 13.128 1.85562 13.15 1.84224C13.1719 1.82886 13.1971 1.82178 13.2229 1.82178C13.2486 1.82178 13.2738 1.82886 13.2957 1.84224C13.3177 1.85562 13.3355 1.87479 13.3473 1.89764L13.7673 3.00208C13.7829 3.06431 13.8451 3.09542 13.8917 3.09542L15.074 3.15764C15.1984 3.15764 15.2451 3.3132 15.1517 3.40653L14.2184 4.13764C14.1981 4.15738 14.1843 4.18281 14.1787 4.21059C14.1731 4.23836 14.1761 4.26716 14.1873 4.2932L14.4984 5.4132C14.5079 5.4416 14.508 5.47229 14.4987 5.50077C14.4895 5.52925 14.4713 5.554 14.447 5.57141C14.4226 5.58881 14.3933 5.59794 14.3634 5.59747C14.3334 5.59699 14.3044 5.58692 14.2806 5.56875L13.3006 4.93097C13.2776 4.91559 13.2505 4.90738 13.2229 4.90738C13.1952 4.90738 13.1681 4.91559 13.1451 4.93097L12.1651 5.56875C12.1413 5.58692 12.1123 5.59699 12.0823 5.59747C12.0524 5.59794 12.0231 5.58881 11.9987 5.57141C11.9744 5.554 11.9562 5.52925 11.947 5.50077C11.9377 5.47229 11.9378 5.4416 11.9473 5.4132L12.2584 4.27764C12.2678 4.25008 12.2683 4.22028 12.2599 4.1924C12.2516 4.16452 12.2347 4.13994 12.2117 4.12208L11.294 3.40653C11.272 3.38891 11.2558 3.36508 11.2476 3.33814C11.2394 3.31121 11.2395 3.28242 11.2479 3.25554C11.2563 3.22866 11.2726 3.20494 11.2947 3.18747C11.3168 3.17001 11.3437 3.15961 11.3717 3.15764L12.554 3.09542C12.6006 3.09542 12.6629 3.06431 12.6784 3.00208L13.0984 1.9132V1.89764ZM13.0984 6.56431C13.1102 6.54145 13.128 6.52229 13.15 6.5089C13.1719 6.49552 13.1971 6.48844 13.2229 6.48844C13.2486 6.48844 13.2738 6.49552 13.2957 6.5089C13.3177 6.52229 13.3355 6.54145 13.3473 6.56431L13.7673 7.66875C13.7829 7.73097 13.8451 7.76208 13.8917 7.76208L15.074 7.82431C15.1984 7.82431 15.2451 7.97986 15.1517 8.0732L14.2184 8.80431C14.1981 8.82404 14.1843 8.84948 14.1787 8.87725C14.1731 8.90503 14.1761 8.93383 14.1873 8.95986L14.4984 10.0799C14.5079 10.1083 14.508 10.139 14.4987 10.1674C14.4895 10.1959 14.4713 10.2207 14.447 10.2381C14.4226 10.2555 14.3933 10.2646 14.3634 10.2641C14.3334 10.2637 14.3044 10.2536 14.2806 10.2354L13.3006 9.59764C13.2776 9.58226 13.2505 9.57405 13.2229 9.57405C13.1952 9.57405 13.1681 9.58226 13.1451 9.59764L12.1651 10.2354C12.1413 10.2536 12.1123 10.2637 12.0823 10.2641C12.0524 10.2646 12.0231 10.2555 11.9987 10.2381C11.9744 10.2207 11.9562 10.1959 11.947 10.1674C11.9377 10.139 11.9378 10.1083 11.9473 10.0799L12.2584 8.94431C12.2678 8.91674 12.2683 8.88695 12.2599 8.85907C12.2516 8.83119 12.2347 8.80661 12.2117 8.78875L11.294 8.0732C11.272 8.05558 11.2558 8.03175 11.2476 8.00481C11.2394 7.97787 11.2395 7.94909 11.2479 7.92221C11.2563 7.89533 11.2726 7.8716 11.2947 7.85414C11.3168 7.83667 11.3437 7.82628 11.3717 7.82431L12.554 7.76208C12.6006 7.76208 12.6629 7.73097 12.6784 7.66875L13.0984 6.57986V6.56431ZM13.0984 11.231C13.1102 11.2081 13.128 11.189 13.15 11.1756C13.1719 11.1622 13.1971 11.1551 13.2229 11.1551C13.2486 11.1551 13.2738 11.1622 13.2957 11.1756C13.3177 11.189 13.3355 11.2081 13.3473 11.231L13.7673 12.3354C13.7829 12.3976 13.8451 12.4288 13.8917 12.4288L15.074 12.491C15.1984 12.491 15.2451 12.6465 15.1517 12.7399L14.2184 13.471C14.1981 13.4907 14.1843 13.5161 14.1787 13.5439C14.1731 13.5717 14.1761 13.6005 14.1873 13.6265L14.4984 14.7465C14.5079 14.7749 14.508 14.8056 14.4987 14.8341C14.4895 14.8626 14.4713 14.8873 14.447 14.9047C14.4226 14.9221 14.3933 14.9313 14.3634 14.9308C14.3334 14.9303 14.3044 14.9203 14.2806 14.9021L13.3006 14.2643C13.2776 14.2489 13.2505 14.2407 13.2229 14.2407C13.1952 14.2407 13.1681 14.2489 13.1451 14.2643L12.1651 14.9021C12.1413 14.9203 12.1123 14.9303 12.0823 14.9308C12.0524 14.9313 12.0231 14.9221 11.9987 14.9047C11.9744 14.8873 11.9562 14.8626 11.947 14.8341C11.9377 14.8056 11.9378 14.7749 11.9473 14.7465L12.2584 13.611C12.2678 13.5834 12.2683 13.5536 12.2599 13.5257C12.2516 13.4979 12.2347 13.4733 12.2117 13.4554L11.294 12.7399C11.272 12.7222 11.2558 12.6984 11.2476 12.6715C11.2394 12.6445 11.2395 12.6158 11.2479 12.5889C11.2563 12.562 11.2726 12.5383 11.2947 12.5208C11.3168 12.5033 11.3437 12.4929 11.3717 12.491L12.554 12.4288C12.6006 12.4288 12.6629 12.3976 12.6784 12.3354L13.0984 11.2465V11.231Z" fill="#F8F9FD"/>
</g>
</g>
<defs>
<clipPath id="clip0_1232_80040">
<rect width="28" height="28" rx="14" fill="white"/>
</clipPath>
<clipPath id="clip1_1232_80040">
<rect width="28" height="28" rx="8" fill="white"/>
</clipPath>
</defs>
</svg>
