<svg width="800" height="800" viewBox="0 0 800 800" fill="none" xmlns="http://www.w3.org/2000/svg">
<path d="M124.337 282.835L100.82 418.827C94.9467 452.793 121.067 483.86 155.5 483.86H328.203C345.32 483.86 358.353 499.223 355.583 516.133L333.493 650.953C329.907 672.857 330.93 695.267 336.503 716.75C341.12 734.547 354.85 748.833 372.907 754.637L377.74 756.187C388.653 759.693 400.563 758.877 410.853 753.92C422.177 748.463 430.463 738.51 433.533 726.67L449.39 665.543C454.437 646.093 461.783 627.317 471.261 609.58C485.106 583.66 506.512 562.917 528.763 543.743L576.721 502.417C590.243 490.763 597.344 473.313 595.805 455.52L568.733 142.431C566.25 113.713 542.24 91.6667 513.447 91.6667H358.493C242.45 91.6667 143.417 172.52 124.337 282.835Z" fill="#AAAAAA" stroke="#AAAAAA" stroke-width="33.3333"/>
<path fill-rule="evenodd" clip-rule="evenodd" d="M701.078 508.837C687.702 509.413 676.246 499.353 675.093 486.013L642.706 111.463C640.626 87.4034 659.577 66.6667 683.776 66.6667C706.57 66.6667 725 85.158 725 107.909V483.86C725 497.247 714.453 508.26 701.078 508.837Z" fill="#AAAAAA" stroke="#AAAAAA" stroke-width="33.3333"/>
</svg>
