<svg width="24" height="24" viewBox="0 0 24 24" fill="none" xmlns="http://www.w3.org/2000/svg">
<g clip-path="url(#clip0_2229_61515)">
<path d="M9 12C9 12.7956 9.31607 13.5587 9.87868 14.1213C10.4413 14.6839 11.2044 15 12 15C12.7956 15 13.5587 14.6839 14.1213 14.1213C14.6839 13.5587 15 12.7956 15 12C15 11.2044 14.6839 10.4413 14.1213 9.87868C13.5587 9.31607 12.7956 9 12 9C11.2044 9 10.4413 9.31607 9.87868 9.87868C9.31607 10.4413 9 11.2044 9 12Z" stroke="#5F6076" stroke-width="1.33333" stroke-linecap="round" stroke-linejoin="round"/>
<path d="M12 6C10.8133 6 9.65328 6.35189 8.66658 7.01118C7.67989 7.67047 6.91085 8.60754 6.45673 9.7039C6.0026 10.8003 5.88378 12.0067 6.11529 13.1705C6.3468 14.3344 6.91825 15.4035 7.75736 16.2426C8.59648 17.0818 9.66557 17.6532 10.8295 17.8847C11.9933 18.1162 13.1997 17.9974 14.2961 17.5433C15.3925 17.0891 16.3295 16.3201 16.9888 15.3334C17.6481 14.3467 18 13.1867 18 12" stroke="#5F6076" stroke-width="1.33333" stroke-linecap="round" stroke-linejoin="round"/>
<path d="M13.0034 3.05612C11.1495 2.84813 9.27671 3.2214 7.6442 4.12429C6.01168 5.02718 4.70009 6.41507 3.89084 8.09597C3.0816 9.77688 2.8147 11.6677 3.12706 13.5069C3.43943 15.3462 4.31562 17.0429 5.63444 18.3624C6.95326 19.6818 8.64952 20.5589 10.4886 20.8722C12.3277 21.1855 14.2186 20.9195 15.8999 20.1111C17.5813 19.3027 18.9698 17.9918 19.8735 16.3598C20.7772 14.7277 21.1514 12.8551 20.9444 11.0011" stroke="#5F6076" stroke-width="1.33333" stroke-linecap="round" stroke-linejoin="round"/>
<path d="M17 5V7H19L21 5H19V3L17 5Z" stroke="#5F6076" stroke-width="1.33333" stroke-linecap="round" stroke-linejoin="round"/>
<path d="M17 7L12 12" stroke="#5F6076" stroke-width="1.33333" stroke-linecap="round" stroke-linejoin="round"/>
</g>
<defs>
<clipPath id="clip0_2229_61515">
<rect width="24" height="24" fill="white"/>
</clipPath>
</defs>
</svg>
