<svg width="24" height="24" viewBox="0 0 24 24" fill="none" xmlns="http://www.w3.org/2000/svg">
<g clip-path="url(#clip0_2944_82754)">
<path d="M7 6.66685V17.3335C6.99997 17.4521 7.03158 17.5686 7.09159 17.6709C7.15159 17.7733 7.23781 17.8577 7.34135 17.9156C7.44489 17.9735 7.562 18.0027 7.68059 18.0002C7.79918 17.9978 7.91497 17.9637 8.016 17.9015L16.6827 12.5682C16.7797 12.5085 16.8599 12.425 16.9155 12.3256C16.9711 12.2261 17.0003 12.1141 17.0003 12.0002C17.0003 11.8863 16.9711 11.7742 16.9155 11.6748C16.8599 11.5754 16.7797 11.4918 16.6827 11.4322L8.016 6.09885C7.91497 6.0367 7.79918 6.00262 7.68059 6.00015C7.562 5.99767 7.44489 6.02688 7.34135 6.08476C7.23781 6.14265 7.15159 6.22711 7.09159 6.32943C7.03158 6.43175 6.99997 6.54823 7 6.66685Z" fill="#EB5828"/>
</g>
<defs>
<clipPath id="clip0_2944_82754">
<rect width="24" height="24" fill="white"/>
</clipPath>
</defs>
</svg>
