<svg width="32" height="32" viewBox="0 0 32 32" fill="none" xmlns="http://www.w3.org/2000/svg">
<rect width="32" height="32" rx="16" fill="#EB5828" fill-opacity="0.15"/>
<path d="M12.5 11.5C12.5 12.4283 12.8687 13.3185 13.5251 13.9749C14.1815 14.6313 15.0717 15 16 15C16.9283 15 17.8185 14.6313 18.4749 13.9749C19.1313 13.3185 19.5 12.4283 19.5 11.5C19.5 10.5717 19.1313 9.6815 18.4749 9.02513C17.8185 8.36875 16.9283 8 16 8C15.0717 8 14.1815 8.36875 13.5251 9.02513C12.8687 9.6815 12.5 10.5717 12.5 11.5Z" stroke="#EB5828" stroke-width="1.5" stroke-linecap="round" stroke-linejoin="round"/>
<path d="M10 24V22C10 20.9391 10.4214 19.9217 11.1716 19.1716C11.9217 18.4214 12.9391 18 14 18H18C19.0609 18 20.0783 18.4214 20.8284 19.1716C21.5786 19.9217 22 20.9391 22 22V24" stroke="#EB5828" stroke-width="1.5" stroke-linecap="round" stroke-linejoin="round"/>
</svg>
