<svg width="28" height="28" viewBox="0 0 28 28" fill="none" xmlns="http://www.w3.org/2000/svg">
<g clip-path="url(#clip0_1232_80032)">
<path d="M0 0H28V28H0V0Z" fill="#0069AA"/>
<path d="M19.506 6.64206C13.9993 11.4643 7.31046 9.56651 4.66602 8.02651C5.67713 8.78873 8.81935 10.6554 13.7971 10.4843C18.7749 10.2976 21.186 8.15095 21.3105 8.02651C21.4349 7.90206 22.2905 7.09318 21.3105 6.47095C21.0352 6.28964 20.7063 6.20777 20.3781 6.23888C20.05 6.27 19.7423 6.41224 19.506 6.64206Z" fill="#95BFE7"/>
<path d="M9.33377 10.8887H6.22266V18.6664C6.22266 19.079 6.38654 19.4747 6.67827 19.7664C6.96999 20.0581 7.36565 20.222 7.77821 20.222H21.7782V10.8887H18.6671V17.1109H9.33377V10.8887Z" fill="#F0F3FA"/>
</g>
<defs>
<clipPath id="clip0_1232_80032">
<rect width="28" height="28" rx="14" fill="white"/>
</clipPath>
</defs>
</svg>
