<svg width="28" height="28" viewBox="0 0 28 28" fill="none" xmlns="http://www.w3.org/2000/svg">
<g clip-path="url(#clip0_1232_80023)">
<path d="M13.8642 27.9696C21.4446 27.9696 27.5897 21.7084 27.5897 13.9848C27.5897 6.26121 21.4446 0 13.8642 0C6.28379 0 0.138672 6.26121 0.138672 13.9848C0.138672 21.7084 6.28379 27.9696 13.8642 27.9696Z" fill="white"/>
<path d="M21.7996 5.90729C21.8166 5.85519 21.7996 5.84587 21.7644 5.88097L16.9649 9.29052C16.9408 9.30533 16.9336 9.33604 16.9473 9.36072C17.2098 9.84169 17.324 10.3397 17.3152 10.8727C17.2449 13.1372 14.8627 14.4221 13.2332 15.48C12.8302 15.7422 12.5156 16.0136 12.296 16.3191C11.7706 17.0277 12.5063 17.7615 13.0586 18.164C15.0818 19.6327 17.2625 21.862 16.3604 24.5894C15.9135 25.9708 14.8188 27.0638 13.645 27.9024C13.505 28.0077 13.3913 27.9901 13.2162 27.9814C12.4734 27.932 11.7349 27.824 11.0091 27.6578C11.0064 27.6528 11.0064 27.6457 11.0091 27.6408C12.4975 26.0844 13.8992 24.1089 13.0844 21.862C12.5678 20.4104 11.2458 19.3355 10.0368 18.4613C9.78262 18.2622 9.56631 18.0198 9.39776 17.7445C8.94152 16.9054 9.66019 16.2582 10.2905 15.8036C11.5867 14.8685 12.7611 14.16 13.6801 13.0061C14.4334 12.0705 14.8106 10.7334 14.3022 9.59654C13.3337 7.42588 12.3465 5.26454 11.3418 3.10979C11.3276 3.10979 11.3155 3.1213 11.3155 3.13611C11.1645 4.30096 10.8214 5.43181 10.2998 6.48424C9.05572 9.13367 7.10285 11.2665 5.48214 13.6527C4.43077 15.2003 3.91469 16.975 3.81751 18.8457C3.70057 21.4123 4.71132 23.9027 6.58568 25.6648C6.78717 25.8568 7.04136 26.0668 7.26921 26.2675V26.2856H7.25109C6.70865 25.9533 6.13877 25.6122 5.65728 25.2447C-0.70587 20.5146 -1.88407 11.4667 3.05602 5.26893C7.98678 -0.852579 16.9918 -1.74048 23.0256 3.30228C31.2729 10.2645 28.8754 23.5271 18.7113 27.1746C17.1296 27.7417 15.4578 28.0219 13.7762 27.9989C13.7592 27.9989 13.7504 27.9901 13.7592 27.9726L13.7943 27.955C16.5729 27.553 18.9974 25.8606 20.3282 23.3916C20.9761 22.1944 21.379 20.9791 21.5542 19.7374C21.6854 18.7585 21.5717 17.6392 21.4581 16.4853C21.3966 15.8382 21.2654 14.7194 21.0809 13.1284C20.723 10.6994 20.97 8.2189 21.7996 5.90729ZM17.2976 1.77273C17.2949 1.76395 17.2888 1.75737 17.28 1.75463C17.2746 1.75298 17.2685 1.75298 17.2625 1.75463L14.5388 3.80957L14.53 3.81834V3.83535L15.8877 6.98275C15.8932 6.99098 15.9042 6.99372 15.9135 6.99153H15.9229L18.6466 4.93713C18.6515 4.92946 18.6515 4.91849 18.6466 4.91081L17.2976 1.76396V1.77273Z" fill="#EF5350"/>
</g>
<defs>
<clipPath id="clip0_1232_80023">
<rect width="28" height="28" rx="14" fill="white"/>
</clipPath>
</defs>
</svg>
