<svg width="28" height="28" viewBox="0 0 28 28" fill="none" xmlns="http://www.w3.org/2000/svg">
<g clip-path="url(#clip0_1232_80018)">
<path d="M0 0H28V28H0V0Z" fill="#F7931A"/>
<path d="M19.9673 12.3522C20.2248 10.6052 18.9023 9.67366 17.0808 9.04116L17.6708 6.68716L16.2323 6.32916L15.6583 8.62516L14.5103 8.35066L15.0923 6.03816L13.6533 5.68066L13.0628 8.04316L12.1478 7.82666V7.81866L10.1598 7.31916L9.77684 8.85816C9.77684 8.85816 10.8418 9.10816 10.8248 9.11616C11.4073 9.26616 11.5073 9.64866 11.4908 9.94816L10.8248 12.6432L10.9748 12.6932L10.8168 12.6597L9.87684 16.4282C9.81034 16.6032 9.62684 16.8692 9.21984 16.7607C9.23634 16.7857 8.17984 16.5112 8.17984 16.5112L7.46484 18.1502L9.33634 18.6157L10.3593 18.8822L9.76034 21.2697L11.1993 21.6272L11.7818 19.2647L12.9378 19.5642L12.3478 21.9182L13.7863 22.2762L14.3768 19.8887C16.8308 20.3542 18.6778 20.1717 19.4518 17.9502C20.0753 16.1622 19.4183 15.1387 18.1288 14.4567C19.0688 14.2487 19.7758 13.6247 19.9588 12.3517H19.9673V12.3522ZM16.6813 16.9607C16.2403 18.7492 13.2293 17.7757 12.2563 17.5427L13.0463 14.3737C14.0193 14.6232 17.1473 15.0972 16.6813 16.9522V16.9607ZM17.1223 12.3272C16.7228 13.9492 14.2108 13.1257 13.4038 12.9262L14.1188 10.0562C14.9343 10.2562 17.5463 10.6387 17.1223 12.3272Z" fill="white"/>
</g>
<defs>
<clipPath id="clip0_1232_80018">
<rect width="28" height="28" rx="14" fill="white"/>
</clipPath>
</defs>
</svg>
