<svg width="28" height="28" viewBox="0 0 28 28" fill="none" xmlns="http://www.w3.org/2000/svg">
<rect width="28" height="28" rx="14" fill="#2E7D32"/>
<path fill-rule="evenodd" clip-rule="evenodd" d="M17.1205 17.1239C17.1453 16.3126 17.007 15.5046 16.7137 14.7478C16.4204 13.991 15.9781 13.3009 15.413 12.7182C14.8479 12.1356 14.1716 11.6724 13.4241 11.356C12.6767 11.0397 11.8733 10.8767 11.0617 10.8767C10.25 10.8767 9.44663 11.0397 8.69917 11.356C7.9517 11.6724 7.27538 12.1356 6.71031 12.7182C6.14524 13.3009 5.70294 13.991 5.40963 14.7478C5.11633 15.5046 4.978 16.3126 5.00284 17.1239C5.05107 18.6987 5.71054 20.1928 6.84153 21.2897C7.97251 22.3866 9.48613 23 11.0617 23C12.6372 23 14.1508 22.3866 15.2818 21.2897C16.4128 20.1928 17.0722 18.6987 17.1205 17.1239ZM8.41146 20.345H13.5244V19.2088H10.2067C10.8713 18.8396 10.9906 18.1635 10.877 17.5045H12.9563V16.624H10.718C10.6611 16.3683 10.6043 16.0559 10.6043 15.7718C10.6043 15.056 11.1156 14.806 12.0019 14.806C12.5245 14.806 13.0642 14.8628 13.3085 14.914V13.6357C13.0813 13.5789 12.4166 13.5278 11.7746 13.5278C10.1896 13.5278 9.18976 14.2891 9.18976 15.6184C9.18976 15.9309 9.24657 16.3058 9.32042 16.624H8.41146V17.5045H9.43404C9.45108 17.5897 9.47381 17.6352 9.49085 17.6693C9.51358 17.7147 9.53062 17.7488 9.53062 17.8397C9.53062 18.2658 9.24657 18.9305 8.41146 19.0668V20.345ZM11.1554 10.0112C11.3474 8.91994 11.8349 7.90214 12.5648 7.06848C13.2948 6.23482 14.2393 5.61719 15.2957 5.28273C16.3521 4.94827 17.4799 4.90976 18.5567 5.17141C19.6334 5.43305 20.6178 5.98483 21.4029 6.76677C22.188 7.54871 22.7438 8.53089 23.0098 9.60656C23.2758 10.6822 23.2418 11.8102 22.9116 12.868C22.5814 13.9257 21.9676 14.8727 21.1369 15.606C20.3062 16.3393 19.2904 16.8309 18.1999 17.0273C18.1658 16.0331 17.9272 15.0844 17.5238 14.2322C17.8071 14.2025 18.0846 14.1317 18.3476 14.0221C18.6963 13.8854 18.996 13.6472 19.2077 13.3383C19.4194 13.0293 19.5334 12.6639 19.5349 12.2893V12.278C19.5349 11.7724 19.3645 11.3747 19.0577 11.085C18.6615 10.7563 18.1851 10.5387 17.6772 10.4544L17.5011 10.4146V8.77846L17.6602 8.82959C18.001 8.96026 18.1715 9.18182 18.251 9.55108H19.4327C19.3474 8.7671 18.9782 8.20468 18.268 7.90358C18.0408 7.80701 17.7852 7.73884 17.5011 7.71043V7.27867H16.933V7.68771C16.5353 7.70475 16.1831 7.7786 15.8706 7.91495C15.5408 8.05327 15.2595 8.28637 15.0623 8.58471C14.8651 8.88306 14.7609 9.23322 14.7628 9.59085V9.59653C14.7628 10.7043 15.6264 11.2327 16.5524 11.4372L16.933 11.5224V13.1926C16.2866 12.2468 15.4269 11.466 14.4233 10.9134C13.4197 10.3608 12.3003 10.0518 11.1554 10.0112ZM17.5011 11.6587V13.1813C17.6147 13.1642 17.7056 13.1358 17.7908 13.1074C18.0749 12.9938 18.2851 12.7552 18.2851 12.4257V12.4086C18.2851 12.2098 18.2112 12.0451 18.0749 11.9258C17.9613 11.8235 17.7738 11.7326 17.5011 11.6587ZM16.916 10.2839H16.933V8.7387C16.7626 8.75006 16.6092 8.78414 16.4785 8.84095C16.2229 8.94889 16.0013 9.17045 16.0013 9.48859V9.49427C16.0013 10.0112 16.5126 10.1874 16.9103 10.2839H16.916Z" fill="white"/>
<path d="M11 23C14.3137 23 17 20.3137 17 17C17 13.6863 14.3137 11 11 11C7.68629 11 5 13.6863 5 17C5 20.3137 7.68629 23 11 23Z" fill="white"/>
<path d="M8.55 18.0938H7.5V17.4375H8.45538C8.45186 17.3981 8.44802 17.3587 8.44385 17.3194C8.43462 17.2144 8.42308 17.1006 8.42308 17C8.42308 16.8512 8.43 16.7025 8.44154 16.5625H7.5V15.9062H8.55692C9.01846 14.3444 10.4792 13.5 12.4408 13.5C12.8331 13.5 13.2346 13.5437 13.5 13.6094V14.9219C13.2462 14.8781 12.8308 14.8125 12.5008 14.8125C11.4046 14.8125 10.5208 15.1603 10.1238 15.9062H13.0385V16.5625H9.84231C9.79767 16.8526 9.79767 17.1474 9.84231 17.4375H13.0385V18.0938H10.1308C10.5138 18.855 11.3885 19.1875 12.5008 19.1875C12.8308 19.1875 13.2438 19.1219 13.5 19.0781V20.3906C13.2346 20.4563 12.8354 20.5 12.4408 20.5C10.4677 20.5 9.00923 19.6687 8.55 18.0938Z" fill="#2E7D32"/>
</svg>
