<svg width="24" height="24" viewBox="0 0 24 24" fill="none" xmlns="http://www.w3.org/2000/svg">
<path d="M12.2168 19.3839C12.5026 20.1535 13.0498 20.7982 13.7627 21.2053C14.4757 21.6125 15.309 21.7561 16.1171 21.6111C16.9251 21.4661 17.6566 21.0417 18.1835 20.4122C18.7104 19.7826 18.9994 18.9879 18.9998 18.1669V12.9999L12.9998 9.6499" stroke="#5F6076" stroke-width="1.3" stroke-linecap="round" stroke-linejoin="round"/>
<path d="M6.21359 15.0138C5.68955 15.6461 5.40449 16.4425 5.40824 17.2638C5.41199 18.085 5.70433 18.8788 6.23412 19.5063C6.76392 20.1338 7.49745 20.5551 8.30643 20.6965C9.11541 20.8379 9.94835 20.6904 10.6596 20.2798L14.9996 17.7458V10.7998" stroke="#5F6076" stroke-width="1.3" stroke-linecap="round" stroke-linejoin="round"/>
<path d="M7.00031 7.62976C5.60931 7.39376 4.21331 8.02476 3.46631 9.31876C3.00576 10.1166 2.88094 11.0646 3.11928 11.9544C3.35763 12.8443 3.93964 13.603 4.73731 14.0638L9.00031 16.5778L15.0003 13.2298" stroke="#5F6076" stroke-width="1.3" stroke-linecap="round" stroke-linejoin="round"/>
<path d="M13.783 4.61619C13.4972 3.84656 12.95 3.20186 12.2371 2.79475C11.5241 2.38764 10.6908 2.24403 9.88273 2.38902C9.07465 2.534 8.34322 2.95836 7.81629 3.58792C7.28935 4.21749 7.00042 5.01221 7 5.83319V10.9002L13 14.3502" stroke="#5F6076" stroke-width="1.3" stroke-linecap="round" stroke-linejoin="round"/>
<path d="M19.786 8.98596C20.31 8.35364 20.5951 7.55722 20.5913 6.73598C20.5876 5.91474 20.2953 5.12096 19.7655 4.49346C19.2357 3.86595 18.5021 3.44466 17.6932 3.30326C16.8842 3.16187 16.0512 3.30937 15.34 3.71996L11 6.25396V13.2" stroke="#5F6076" stroke-width="1.3" stroke-linecap="round" stroke-linejoin="round"/>
<path d="M19 16.302C20.391 16.538 21.787 15.907 22.534 14.613C22.9945 13.8152 23.1194 12.8671 22.881 11.9773C22.6427 11.0875 22.0607 10.3288 21.263 9.868L16.955 7.354L11 10.774" stroke="#5F6076" stroke-width="1.3" stroke-linecap="round" stroke-linejoin="round"/>
</svg>
