<svg width="24" height="24" viewBox="0 0 24 24" fill="none" xmlns="http://www.w3.org/2000/svg">
<g clip-path="url(#clip0_7739_74660)">
<path d="M14.364 7.24264L7.86396 13.7426C7.46614 14.1405 7.24264 14.68 7.24264 15.2426C7.24264 15.8052 7.46614 16.3448 7.86396 16.7426C8.26179 17.1405 8.80135 17.364 9.36396 17.364C9.92657 17.364 10.4661 17.1405 10.864 16.7426L17.364 10.2426C18.1596 9.44699 18.6066 8.36786 18.6066 7.24264C18.6066 6.11742 18.1596 5.03829 17.364 4.24264C16.5683 3.44699 15.4892 3 14.364 3C13.2387 3 12.1596 3.44699 11.364 4.24264L4.86396 10.7426C3.67049 11.9361 3 13.5548 3 15.2426C3 16.9305 3.67049 18.5492 4.86396 19.7426C6.05744 20.9361 7.67613 21.6066 9.36396 21.6066C11.0518 21.6066 12.6705 20.9361 13.864 19.7426L20.364 13.2426" stroke="#5F6076" stroke-width="1.5" stroke-linecap="round" stroke-linejoin="round"/>
</g>
<defs>
<clipPath id="clip0_7739_74660">
<rect width="24" height="24" fill="white"/>
</clipPath>
</defs>
</svg>
