<svg width="24" height="24" viewBox="0 0 24 24" fill="none" xmlns="http://www.w3.org/2000/svg">
<g clip-path="url(#clip0_3301_69336)">
<path d="M9.38112 9.16308L10.2546 9.16308L10.1225 8.29962L9.65344 5.23479C9.58813 4.60819 9.80879 3.98526 10.2546 3.53947C10.6265 3.16757 11.2927 2.92697 12.0465 2.92699C12.8004 2.92701 13.4666 3.16766 13.8385 3.53953C14.2873 3.9883 14.5079 4.61658 14.4384 5.24735C14.4383 5.24795 14.4383 5.24855 14.4382 5.24915L14.0799 8.32642L13.9825 9.16316L14.8249 9.16316L15.9021 9.16316H15.9022C16.6614 9.16314 17.3895 9.46476 17.9264 10.0017C18.3999 10.4752 18.6925 11.0998 18.7531 11.7667L18.7531 11.7668L18.7934 12.2101L5.46194 12.21L5.50224 11.7667L5.50224 11.7667C5.56287 11.0997 5.85541 10.4751 6.32896 10.0016C6.86584 9.46469 7.59399 9.16308 8.35323 9.16308L9.38112 9.16308Z" stroke="#5F6076" stroke-width="1.5"/>
<path d="M8.82685 21.3298L5.61667 21.3297C5.02863 21.3297 4.56753 20.8248 4.62078 20.2392L4.85316 17.6837L5.35019 13.247C5.40688 12.741 5.83477 12.3584 6.34396 12.3583L17.8771 12.3582C18.3896 12.3582 18.8191 12.7456 18.8718 13.2553L19.5929 20.2268C19.6539 20.8167 19.1912 21.3297 18.5982 21.3297L8.82685 21.3298ZM8.82685 21.3298L9.33883 15.5403" stroke="#5F6076" stroke-width="1.5" stroke-linecap="round"/>
</g>
<defs>
<clipPath id="clip0_3301_69336">
<rect width="24" height="24" fill="white"/>
</clipPath>
</defs>
</svg>
