<svg width="24" height="24" viewBox="0 0 24 24" fill="none" xmlns="http://www.w3.org/2000/svg">
<path d="M4 6C4 7.657 7.582 9 12 9C16.418 9 20 7.657 20 6C20 4.343 16.418 3 12 3C7.582 3 4 4.343 4 6Z" stroke="#5F6076" stroke-width="1.5" stroke-linecap="round" stroke-linejoin="round"/>
<path d="M4 6V12C4 13.657 7.582 15 12 15C12.415 15 12.822 14.988 13.22 14.965" stroke="#5F6076" stroke-width="1.5" stroke-linecap="round" stroke-linejoin="round"/>
<path d="M20 10V6" stroke="#5F6076" stroke-width="1.5" stroke-linecap="round" stroke-linejoin="round"/>
<path d="M4 12V18C4 19.657 7.582 21 12 21C12.352 21 12.698 20.991 13.037 20.975" stroke="#5F6076" stroke-width="1.5" stroke-linecap="round" stroke-linejoin="round"/>
<path d="M21 15H18.5C18.1022 15 17.7206 15.158 17.4393 15.4393C17.158 15.7206 17 16.1022 17 16.5C17 16.8978 17.158 17.2794 17.4393 17.5607C17.7206 17.842 18.1022 18 18.5 18H19.5C19.8978 18 20.2794 18.158 20.5607 18.4393C20.842 18.7206 21 19.1022 21 19.5C21 19.8978 20.842 20.2794 20.5607 20.5607C20.2794 20.842 19.8978 21 19.5 21H17" stroke="#5F6076" stroke-width="1.5" stroke-linecap="round" stroke-linejoin="round"/>
<path d="M19 21V22M19 14V15" stroke="#5F6076" stroke-width="1.5" stroke-linecap="round" stroke-linejoin="round"/>
</svg>
