<svg width="24" height="24" viewBox="0 0 24 24" fill="none" xmlns="http://www.w3.org/2000/svg">
<g clip-path="url(#clip0_11235_98927)">
<path d="M15.5 5.5C15.5 5.10218 15.3478 4.72064 15.0769 4.43934C14.806 4.15804 14.4386 4 14.0556 4H5.44444C5.06135 4 4.69395 4.15804 4.42307 4.43934C4.15218 4.72064 4 5.10218 4 5.5V14.5C4 14.8978 4.15218 15.2794 4.42307 15.5607C4.69395 15.842 5.06135 16 5.44444 16" stroke="#EB5828" stroke-width="1.5" stroke-linecap="round" stroke-linejoin="round"/>
<path d="M8 9.5C8 9.10218 8.14048 8.72064 8.39052 8.43934C8.64057 8.15804 8.97971 8 9.33333 8H14H18.6667C19.0203 8 19.3594 8.15804 19.6095 8.43934C19.8595 8.72064 20 9.10218 20 9.5V18.5C20 18.8978 19.8595 19.2794 19.6095 19.5607C19.3594 19.842 19.0203 20 18.6667 20H9.33333C8.97971 20 8.64057 19.842 8.39052 19.5607C8.14048 19.2794 8 18.8978 8 18.5V9.5Z" stroke="#EB5828" stroke-width="1.5" stroke-linecap="round" stroke-linejoin="round"/>
</g>
<defs>
<clipPath id="clip0_11235_98927">
<rect width="24" height="24" fill="white"/>
</clipPath>
</defs>
</svg>
