<svg width="24" height="24" viewBox="0 0 24 24" fill="none" xmlns="http://www.w3.org/2000/svg">
<path d="M8 16L16 8" stroke="#5F6076" stroke-width="1.5" stroke-linecap="round" stroke-linejoin="round"/>
<path d="M8.5 9C8.77614 9 9 8.77614 9 8.5C9 8.22386 8.77614 8 8.5 8C8.22386 8 8 8.22386 8 8.5C8 8.77614 8.22386 9 8.5 9Z" fill="#5F6076" stroke="#5F6076" stroke-width="1.5" stroke-linecap="round" stroke-linejoin="round"/>
<path d="M15.5 16C15.7761 16 16 15.7761 16 15.5C16 15.2239 15.7761 15 15.5 15C15.2239 15 15 15.2239 15 15.5C15 15.7761 15.2239 16 15.5 16Z" fill="#5F6076" stroke="#5F6076" stroke-width="1.5" stroke-linecap="round" stroke-linejoin="round"/>
<path d="M4.22174 6.66604C4.22174 6.01764 4.47932 5.3958 4.9378 4.93731C5.39629 4.47883 6.01813 4.22125 6.66653 4.22125H7.77779C8.42333 4.22088 9.04251 3.96522 9.50026 3.51004L10.2781 2.73216C10.5053 2.50368 10.7755 2.32237 11.073 2.19865C11.3705 2.07492 11.6895 2.01123 12.0117 2.01123C12.3339 2.01123 12.653 2.07492 12.9505 2.19865C13.248 2.32237 13.5181 2.50368 13.7453 2.73216L14.5232 3.51004C14.9809 3.96522 15.6001 4.22088 16.2456 4.22125H17.3569C18.0053 4.22125 18.6271 4.47883 19.0856 4.93731C19.5441 5.3958 19.8017 6.01764 19.8017 6.66604V7.7773C19.8021 8.42284 20.0577 9.04203 20.5129 9.49977L21.2908 10.2777C21.5193 10.5048 21.7006 10.775 21.8243 11.0725C21.948 11.37 22.0117 11.689 22.0117 12.0112C22.0117 12.3334 21.948 12.6525 21.8243 12.95C21.7006 13.2475 21.5193 13.5176 21.2908 13.7448L20.5129 14.5227C20.0577 14.9804 19.8021 15.5996 19.8017 16.2452V17.3564C19.8017 18.0048 19.5441 18.6267 19.0856 19.0851C18.6271 19.5436 18.0053 19.8012 17.3569 19.8012H16.2456C15.6001 19.8016 14.9809 20.0572 14.5232 20.5124L13.7453 21.2903C13.5181 21.5188 13.248 21.7001 12.9505 21.8238C12.653 21.9475 12.3339 22.0112 12.0117 22.0112C11.6895 22.0112 11.3705 21.9475 11.073 21.8238C10.7755 21.7001 10.5053 21.5188 10.2781 21.2903L9.50026 20.5124C9.04251 20.0572 8.42333 19.8016 7.77779 19.8012H6.66653C6.01813 19.8012 5.39629 19.5436 4.9378 19.0851C4.47932 18.6267 4.22174 18.0048 4.22174 17.3564V16.2452C4.22137 15.5996 3.96571 14.9804 3.51053 14.5227L2.73264 13.7448C2.50417 13.5176 2.32286 13.2475 2.19913 12.95C2.07541 12.6525 2.01172 12.3334 2.01172 12.0112C2.01172 11.689 2.07541 11.37 2.19913 11.0725C2.32286 10.775 2.50417 10.5048 2.73264 10.2777L3.51053 9.49977C3.96571 9.04203 4.22137 8.42284 4.22174 7.7773V6.66604Z" stroke="#5F6076" stroke-width="1.5" stroke-linecap="round" stroke-linejoin="round"/>
</svg>
