<svg width="24" height="24" viewBox="0 0 24 24" fill="none" xmlns="http://www.w3.org/2000/svg">
<g clip-path="url(#clip0_3165_84409)">
<path d="M4 7.71429C4 7.25963 4.1873 6.82359 4.5207 6.5021C4.8541 6.18061 5.30628 6 5.77778 6H18.2222C18.6937 6 19.1459 6.18061 19.4793 6.5021C19.8127 6.82359 20 7.25963 20 7.71429V16.2857C20 16.7404 19.8127 17.1764 19.4793 17.4979C19.1459 17.8194 18.6937 18 18.2222 18H5.77778C5.30628 18 4.8541 17.8194 4.5207 17.4979C4.1873 17.1764 4 16.7404 4 16.2857V7.71429Z" stroke="#5F6076" stroke-width="1.5" stroke-linecap="round" stroke-linejoin="round"/>
<path d="M4 8L12 14L20 8" stroke="#5F6076" stroke-width="1.5" stroke-linecap="round" stroke-linejoin="round"/>
</g>
<defs>
<clipPath id="clip0_3165_84409">
<rect width="24" height="24" fill="white"/>
</clipPath>
</defs>
</svg>
