<svg width="24" height="24" viewBox="0 0 24 24" fill="none" xmlns="http://www.w3.org/2000/svg">
<path d="M14 8V6.75C14 6.28587 13.8084 5.84075 13.4675 5.51256C13.1265 5.18437 12.664 5 12.1818 5H5.81818C5.33597 5 4.87351 5.18437 4.53253 5.51256C4.19156 5.84075 4 6.28587 4 6.75V17.25C4 17.7141 4.19156 18.1592 4.53253 18.4874C4.87351 18.8156 5.33597 19 5.81818 19H12.1818C12.664 19 13.1265 18.8156 13.4675 18.4874C13.8084 18.1592 14 17.7141 14 17.25V16" stroke="#5F6076" stroke-width="1.5" stroke-linecap="round" stroke-linejoin="round"/>
<path d="M9 12H21L18.5 9.5" stroke="#5F6076" stroke-width="1.5" stroke-linecap="round" stroke-linejoin="round"/>
<path d="M18.5 14.5L21 12" stroke="#5F6076" stroke-width="1.5" stroke-linecap="round" stroke-linejoin="round"/>
</svg>
