<svg width="36" height="36" viewBox="0 0 36 36" fill="none" xmlns="http://www.w3.org/2000/svg">
<g clip-path="url(#clip0_7643_13533)">
<path d="M24.3369 24.3371H21.6698V20.1604C21.6698 19.1644 21.652 17.8822 20.2827 17.8822C18.8936 17.8822 18.6811 18.9674 18.6811 20.0878V24.3369H16.014V15.7477H18.5744V16.9215H18.6102C19.1323 16.0288 20.103 15.4957 21.1364 15.5341C23.8396 15.5341 24.338 17.3121 24.338 19.6253L24.3369 24.3371ZM13.0047 14.5736C12.1499 14.5738 11.4569 13.881 11.4567 13.0262C11.4566 12.1714 12.1494 11.4783 13.0042 11.4781C13.8589 11.478 14.552 12.1708 14.5522 13.0256C14.5522 13.4361 14.3892 13.8298 14.099 14.1201C13.8088 14.4104 13.4152 14.5736 13.0047 14.5736ZM14.3382 24.3371H11.6684V15.7477H14.3382V24.3371ZM25.6665 9.00134H10.3282C9.60332 8.99316 9.00885 9.57385 9 10.2988V25.701C9.00854 26.4262 9.60297 27.0075 10.3282 26.9999H25.6665C26.3932 27.0089 26.9899 26.4277 27 25.701V10.2977C26.9896 9.5713 26.3928 8.99065 25.6665 9.00011" fill="#EB5828"/>
</g>
<defs>
<clipPath id="clip0_7643_13533">
<rect width="36" height="36" fill="white"/>
</clipPath>
</defs>
</svg>
