<svg width="24" height="24" viewBox="0 0 24 24" fill="none" xmlns="http://www.w3.org/2000/svg">
<g clip-path="url(#clip0_651_12619)">
<path d="M12.0001 1.99219C10.1898 1.99252 8.41358 2.48426 6.86085 3.41495C5.30811 4.34564 4.03715 5.68037 3.18352 7.27677C2.32989 8.87317 1.92562 10.6713 2.01384 12.4795C2.10205 14.2876 2.67944 16.0379 3.68441 17.5436C4.68939 19.0493 6.08424 20.254 7.7202 21.0291C9.35615 21.8043 11.1718 22.1208 12.9736 21.9449C14.7753 21.769 16.4955 21.1073 17.9506 20.0304C19.4058 18.9535 20.5413 17.5018 21.2361 15.8302C21.5771 15.0102 20.7601 14.1862 19.9381 14.5202C18.5293 15.0909 16.965 15.1498 15.5173 14.6866C14.0695 14.2235 12.8299 13.2676 12.0139 11.9852C11.1978 10.7028 10.8571 9.17497 11.0508 7.66734C11.2445 6.15972 11.9604 4.76765 13.0741 3.73319L13.1511 3.65319C13.7021 3.02319 13.2641 2.00019 12.3931 2.00019H12.1271L12.0591 1.99419L11.9991 1.99219H12.0001Z" fill="#DB4933"/>
</g>
<defs>
<clipPath id="clip0_651_12619">
<rect width="24" height="24" fill="white"/>
</clipPath>
</defs>
</svg>
