<svg width="24" height="24" viewBox="0 0 24 24" fill="none" xmlns="http://www.w3.org/2000/svg">
<g clip-path="url(#clip0_651_12631)">
<path d="M9.99972 3.19998C8.43542 3.56262 6.99664 4.33718 5.8326 5.44332C4.66856 6.54946 3.82166 7.94689 3.37975 9.49066C2.93783 11.0344 2.917 12.6683 3.31941 14.2229C3.72182 15.7774 4.53281 17.196 5.66827 18.3314C6.80372 19.4669 8.22229 20.2779 9.77683 20.6803C11.3314 21.0827 12.9653 21.0619 14.509 20.62C16.0528 20.178 17.4502 19.3311 18.5564 18.1671C19.6625 17.0031 20.4371 15.5643 20.7997 14C20.7997 13.7348 20.6944 13.4804 20.5068 13.2929C20.3193 13.1053 20.0649 13 19.7997 13H12.9997C12.4693 13 11.9606 12.7893 11.5855 12.4142C11.2104 12.0391 10.9997 11.5304 10.9997 11V3.99998C10.9873 3.88151 10.9515 3.76668 10.8943 3.66215C10.8372 3.55763 10.7599 3.46548 10.6669 3.39107C10.5738 3.31665 10.467 3.26144 10.3524 3.22864C10.2379 3.19584 10.118 3.1861 9.99972 3.19998Z" stroke="#5F6076" stroke-width="1.5" stroke-linecap="round" stroke-linejoin="round"/>
<path d="M15 3.5C16.2697 3.94708 17.423 4.6733 18.3748 5.62516C19.3267 6.57702 20.0529 7.73028 20.5 9H16C15.7348 9 15.4804 8.89464 15.2929 8.70711C15.1054 8.51957 15 8.26522 15 8V3.5Z" stroke="#5F6076" stroke-width="1.5" stroke-linecap="round" stroke-linejoin="round"/>
</g>
<defs>
<clipPath id="clip0_651_12631">
<rect width="24" height="24" fill="white"/>
</clipPath>
</defs>
</svg>
