<svg width="28" height="28" viewBox="0 0 28 28" fill="none" xmlns="http://www.w3.org/2000/svg">
<path d="M1 20.5C1 19.1193 2.11929 18 3.5 18H4V23H3.5C2.11929 23 1 21.8807 1 20.5V20.5Z" fill="#97979E"/>
<path d="M27 20.5C27 21.8807 25.8807 23 24.5 23H24V18H24.5C25.8807 18 27 19.1193 27 20.5V20.5Z" fill="#97979E"/>
<rect width="2" height="5" transform="translate(13 8)" fill="#35384B"/>
<rect x="3" y="13" width="22" height="15" rx="6" fill="#A2A2AA"/>
<path d="M15 12C16.6569 12 18 13.3431 18 15V15H10V15C10 13.3431 11.3431 12 13 12H15Z" fill="#A2A2AA"/>
<rect x="5" y="16" width="18" height="9" rx="4.5" fill="#35384B"/>
<rect x="8" y="18.5" width="4" height="4" rx="2" fill="#00C269"/>
<rect x="16" y="18.5" width="4" height="4" rx="2" fill="#00C269"/>
<g opacity="0.2">
<rect x="7.5" y="0.5" width="13" height="13" rx="6.5" stroke="url(#paint0_linear_6435_86854)"/>
</g>
<g opacity="0.6">
<rect x="10" y="3" width="8" height="8" rx="4" stroke="url(#paint1_linear_6435_86854)"/>
</g>
<rect x="12" y="5" width="4" height="4" rx="2" fill="url(#paint2_linear_6435_86854)"/>
<defs>
<linearGradient id="paint0_linear_6435_86854" x1="14" y1="0" x2="14" y2="14" gradientUnits="userSpaceOnUse">
<stop stop-color="#008146"/>
<stop offset="0.488582" stop-color="#00C269"/>
<stop offset="1" stop-color="#008146"/>
</linearGradient>
<linearGradient id="paint1_linear_6435_86854" x1="14" y1="2.5" x2="14" y2="11.5" gradientUnits="userSpaceOnUse">
<stop stop-color="#009D55"/>
<stop offset="0.471691" stop-color="#00C269"/>
<stop offset="1" stop-color="#009D55"/>
</linearGradient>
<linearGradient id="paint2_linear_6435_86854" x1="14" y1="5" x2="14" y2="9" gradientUnits="userSpaceOnUse">
<stop stop-color="#009D55"/>
<stop offset="0.488589" stop-color="#00C269"/>
<stop offset="1" stop-color="#009953"/>
</linearGradient>
</defs>
</svg>
