<svg width="24" height="24" viewBox="0 0 24 24" fill="none" xmlns="http://www.w3.org/2000/svg">
<path d="M4.19817 5.0293L20.5 12L4.19817 18.9707C4.10511 19.002 4.00353 19.0084 3.90632 18.9891C3.80911 18.9697 3.72065 18.9256 3.65217 18.8622C3.58169 18.7971 3.53317 18.7162 3.51199 18.6285C3.49081 18.5408 3.49779 18.4496 3.53217 18.3652L6.00015 12L3.53217 5.63484C3.49779 5.55037 3.49081 5.45923 3.51199 5.3715C3.53317 5.28377 3.58169 5.20289 3.65217 5.13781C3.72065 5.07441 3.80911 5.03025 3.90632 5.01093C4.00353 4.99161 4.10511 4.998 4.19817 5.0293Z" stroke="#5F6076" stroke-width="1.5" stroke-linecap="round" stroke-linejoin="round"/>
<path d="M6 12H20" stroke="#5F6076" stroke-width="1.5" stroke-linecap="round" stroke-linejoin="round"/>
</svg>
