<svg width="24" height="24" viewBox="0 0 24 24" fill="none" xmlns="http://www.w3.org/2000/svg">
<g clip-path="url(#clip0_1015_43480)">
<path d="M6 21L12 16L18 21" stroke="#5F6076" stroke-width="1.5" stroke-linecap="round" stroke-linejoin="round"/>
<path d="M12 13V21" stroke="#5F6076" stroke-width="1.5" stroke-linecap="round" stroke-linejoin="round"/>
<path d="M8.23797 8.26396L4.05497 10.774C3.03497 11.388 2.69797 12.672 3.29497 13.68L3.45997 13.96C3.97997 14.84 5.08397 15.226 6.06497 14.87L12.522 12.53M15.429 11.475L20.307 9.70496C20.4474 9.65645 20.5755 9.57796 20.6825 9.47493C20.7895 9.3719 20.8728 9.24681 20.9265 9.10834C20.9803 8.96988 21.0033 8.82137 20.9938 8.67314C20.9844 8.5249 20.9428 8.3805 20.872 8.24996L18.252 3.54496C18.1118 3.30156 17.8828 3.12187 17.613 3.04357C17.3433 2.96528 17.0537 2.99444 16.805 3.12496L16.749 3.15696L10.733 6.76696" stroke="#5F6076" stroke-width="1.5" stroke-linecap="round" stroke-linejoin="round"/>
<path d="M14 5L17 10.5" stroke="#5F6076" stroke-width="1.5" stroke-linecap="round" stroke-linejoin="round"/>
<path d="M3 3L21 21" stroke="#5F6076" stroke-width="1.5" stroke-linecap="round" stroke-linejoin="round"/>
</g>
<defs>
<clipPath id="clip0_1015_43480">
<rect width="24" height="24" fill="white"/>
</clipPath>
</defs>
</svg>
