<svg width="24" height="24" viewBox="0 0 24 24" fill="none" xmlns="http://www.w3.org/2000/svg">
<path d="M8.5 7.5C8.5 8.42826 8.86875 9.3185 9.52513 9.97487C10.1815 10.6313 11.0717 11 12 11C12.9283 11 13.8185 10.6313 14.4749 9.97487C15.1313 9.3185 15.5 8.42826 15.5 7.5C15.5 6.57174 15.1313 5.6815 14.4749 5.02513C13.8185 4.36875 12.9283 4 12 4C11.0717 4 10.1815 4.36875 9.52513 5.02513C8.86875 5.6815 8.5 6.57174 8.5 7.5Z" stroke="#5F6076" stroke-width="1.5" stroke-linecap="round" stroke-linejoin="round"/>
<path d="M6 20V18C6 16.9391 6.42143 15.9217 7.17157 15.1716C7.92172 14.4214 8.93913 14 10 14H14C15.0609 14 16.0783 14.4214 16.8284 15.1716C17.5786 15.9217 18 16.9391 18 18V20" stroke="#5F6076" stroke-width="1.5" stroke-linecap="round" stroke-linejoin="round"/>
</svg>
