<svg width="24" height="24" viewBox="0 0 24 24" fill="none" xmlns="http://www.w3.org/2000/svg">
<path d="M4 21V19C4 17.9391 4.42143 16.9217 5.17157 16.1716C5.92172 15.4214 6.93913 15 8 15H10" stroke="#5F6076" stroke-width="1.5" stroke-linecap="round" stroke-linejoin="round"/>
<path d="M20 16C20 20 17.5 22 16.5 22C15.5 22 13 20 13 16C14 16 15.5 15.5 16.5 14.5C17.5 15.5 19 16 20 16Z" stroke="#5F6076" stroke-width="1.5" stroke-linecap="round" stroke-linejoin="round"/>
<path d="M6 7C6 8.06087 6.42143 9.07828 7.17157 9.82843C7.92172 10.5786 8.93913 11 10 11C11.0609 11 12.0783 10.5786 12.8284 9.82843C13.5786 9.07828 14 8.06087 14 7C14 5.93913 13.5786 4.92172 12.8284 4.17157C12.0783 3.42143 11.0609 3 10 3C8.93913 3 7.92172 3.42143 7.17157 4.17157C6.42143 4.92172 6 5.93913 6 7Z" stroke="#5F6076" stroke-width="1.5" stroke-linecap="round" stroke-linejoin="round"/>
</svg>
