<svg width="24" height="24" viewBox="0 0 24 24" fill="none" xmlns="http://www.w3.org/2000/svg">
<path d="M17.7333 8V5C17.7333 4.73478 17.6139 4.48043 17.4014 4.29289C17.1888 4.10536 16.9006 4 16.6 4H5.26667C4.66551 4 4.08897 4.21071 3.66389 4.58579C3.23881 4.96086 3 5.46957 3 6M3 6C3 6.53043 3.23881 7.03914 3.66389 7.41421C4.08897 7.78929 4.66551 8 5.26667 8H18.8667C19.1672 8 19.4555 8.10536 19.6681 8.29289C19.8806 8.48043 20 8.73478 20 9V12.5M3 6V18C3 18.5304 3.23881 19.0391 3.66389 19.4142C4.08897 19.7893 4.66551 20 5.26667 20H18.8667C19.1672 20 19.4555 19.8946 19.6681 19.7071C19.8806 19.5196 20 19.2652 20 19V16" stroke="#5F6076" stroke-width="1.5" stroke-linecap="round" stroke-linejoin="round"/>
<path d="M21 13V16H17.6667C17.2246 16 16.8007 15.842 16.4882 15.5607C16.1756 15.2794 16 14.8978 16 14.5C16 14.1022 16.1756 13.7206 16.4882 13.4393C16.8007 13.158 17.2246 13 17.6667 13H21Z" stroke="#5F6076" stroke-width="1.5" stroke-linecap="round" stroke-linejoin="round"/>
</svg>
