<svg width="24" height="24" viewBox="0 0 24 24" fill="none" xmlns="http://www.w3.org/2000/svg">
<g clip-path="url(#clip0_5490_65008)">
<path d="M17.8106 11.0307C17.6235 9.80758 17.0692 8.6747 16.2249 7.78976C15.3806 6.90482 14.2883 6.31186 13.1001 6.09341C11.9119 5.87496 10.6868 6.04188 9.59538 6.57095C8.50397 7.10002 7.60054 7.96491 7.01081 9.04524C6.43873 9.09378 5.88156 9.25742 5.37113 9.52682C4.86071 9.79621 4.40701 10.1661 4.03596 10.6153C3.6649 11.0645 3.38375 11.5843 3.20855 12.145C3.03336 12.7057 2.96755 13.2962 3.01489 13.883C3.06167 14.4697 3.22067 15.0412 3.48281 15.5649C3.74495 16.0885 4.10509 16.5541 4.54267 16.935C4.98026 17.316 5.48671 17.6047 6.03311 17.7849C6.57952 17.9651 7.15517 18.0331 7.7272 17.9851H17.4029C17.8479 18.0124 18.2938 17.9496 18.7151 17.8002C19.1364 17.6508 19.5249 17.4177 19.8584 17.1142C20.1919 16.8108 20.4638 16.4429 20.6586 16.0317C20.8534 15.6204 20.9673 15.1738 20.9938 14.7174C21.048 13.7957 20.7429 12.8897 20.1458 12.1987C19.5487 11.5077 18.7084 11.0882 17.8097 11.0326L17.8106 11.0307Z" fill="#F1CC12" stroke="#F1CC12" stroke-width="1.33333" stroke-linecap="round" stroke-linejoin="round"/>
</g>
<defs>
<clipPath id="clip0_5490_65008">
<rect width="24" height="24" fill="white"/>
</clipPath>
</defs>
</svg>
